<svg width="15" height="15" viewBox="0 0 15 15" fill="none" xmlns="http://www.w3.org/2000/svg">
<path d="M9.2125 5.62501L8.99625 11.25M6.00375 11.25L5.7875 5.62501M12.0175 3.61876C12.2313 3.65126 12.4437 3.68563 12.6562 3.72251M12.0175 3.61876L11.35 12.2956C11.3228 12.6489 11.1632 12.9789 10.9031 13.2195C10.6431 13.4602 10.3018 13.5939 9.9475 13.5938H5.0525C4.69818 13.5939 4.35689 13.4602 4.09686 13.2195C3.83683 12.9789 3.67724 12.6489 3.65 12.2956L2.9825 3.61876M12.0175 3.61876C11.2962 3.5097 10.5711 3.42694 9.84375 3.37063M2.9825 3.61876C2.76875 3.65063 2.55625 3.68501 2.34375 3.72188M2.9825 3.61876C3.70383 3.5097 4.4289 3.42694 5.15625 3.37063M9.84375 3.37063V2.79813C9.84375 2.06063 9.275 1.44563 8.5375 1.42251C7.84601 1.4004 7.15399 1.4004 6.4625 1.42251C5.725 1.44563 5.15625 2.06126 5.15625 2.79813V3.37063M9.84375 3.37063C8.28358 3.25005 6.71642 3.25005 5.15625 3.37063" stroke="#EF4444" stroke-width="1.5" stroke-linecap="round" stroke-linejoin="round"/>
</svg>
