<svg width="15" height="15" viewBox="0 0 15 15" fill="none" xmlns="http://www.w3.org/2000/svg">
<path d="M1.27258 7.70125C1.22945 7.57162 1.22945 7.43151 1.27258 7.30187C2.13946 4.69375 4.60008 2.8125 7.50008 2.8125C10.3988 2.8125 12.8582 4.69188 13.727 7.29875C13.7707 7.42813 13.7707 7.56813 13.727 7.69813C12.8607 10.3063 10.4001 12.1875 7.50008 12.1875C4.60133 12.1875 2.14133 10.3081 1.27258 7.70125Z" fill="#A4A4A4"/>
<path d="M9.375 7.5C9.375 7.99728 9.17746 8.47419 8.82583 8.82583C8.47419 9.17746 7.99728 9.375 7.5 9.375C7.00272 9.375 6.52581 9.17746 6.17417 8.82583C5.82254 8.47419 5.625 7.99728 5.625 7.5C5.625 7.00272 5.82254 6.52581 6.17417 6.17417C6.52581 5.82254 7.00272 5.625 7.5 5.625C7.99728 5.625 8.47419 5.82254 8.82583 6.17417C9.17746 6.52581 9.375 7.00272 9.375 7.5Z" fill="#A4A4A4" stroke="#1F2937" stroke-width="1.5" stroke-linecap="round" stroke-linejoin="round"/>
</svg>
